<?xml version="1.0" encoding="utf-8"?>
<!-- Generator: Adobe Illustrator 19.0.0, SVG Export Plug-In . SVG Version: 6.00 Build 0)  -->
<svg version="1.1" id="Слой_1" xmlns="http://www.w3.org/2000/svg" xmlns:xlink="http://www.w3.org/1999/xlink" x="0px" y="0px"
	 viewBox="-262 86.5 266.3 223.7" style="enable-background:new -262 86.5 266.3 223.7;" xml:space="preserve">
<style type="text/css">
	.st0{fill:#BAD2E0;}
	.st1{fill:#FFFFFF;}
	.st2{fill:#2B353E;}
</style>
<path class="st0" d="M-261.4,300.6L-133,98.1c1.9-3,6.3-3,8.5,0L3.6,299.5c1.9,2.6-0.4,5.9-3.3,5.9h-258.7
	C-261.4,305.8-262.9,302.8-261.4,300.6z"/>
<path class="st1" d="M-194,190.1l62.8-97.4c1-1.6,3.4-1.6,4.5,0l50.9,79.4c1.4,2.2-0.9,5-3.4,3.9l-29.2-13.5c-1-0.5-2.1-0.3-2.9,0.5
	l-24.6,22.6c-1,0.9-2.4,0.9-3.4,0.1l-18.7-14.5c-1-0.7-2.3-0.7-3.3,0l-28.9,22.4C-192.5,195.5-195.6,192.6-194,190.1z"/>
<path class="st2" d="M-206.3,225.1h13.9v17h13.3v-17h13.9v42.5h-14V251h-13.3v16.8h-13.9L-206.3,225.1L-206.3,225.1z M-157.2,225.1
	h14.3v42.5h-14.3V225.1z M-105.4,236.7c-3.5-1.2-6.4-1.9-8.5-1.9c-1.5,0-2.9,0.4-3.9,1c-1.2,0.6-2.1,1.5-2.9,2.5s-1.5,2.3-1.9,3.5
	s-0.6,2.7-0.6,4.1c0,1.7,0.2,3.1,0.6,4.6s1,2.5,1.9,3.5c0.8,1,1.9,1.9,2.9,2.5c1,0.6,2.5,0.8,3.7,0.8c0.8,0,1.7,0,2.5-0.2v-10.2
	l10.8-1.2v19.5c-4.8,2.1-9.7,3.3-14.9,3.3c-6,0-11-2.3-15.1-6.6c-4.1-4.4-6.2-9.7-6.2-16s2.1-11.4,6.4-15.5
	c4.1-4.1,9.1-6.4,14.9-6.4c5.2,0,10.2,1,14.3,3.1L-105.4,236.7z M-93.8,225.1h13.9v17h13.3v-17h13.9v42.5h-13.9V251h-13.3v16.8
	h-13.9V225.1z"/>
</svg>
